<svg width="500" height="500" viewBox="0 0 500 500" fill="none" xmlns="http://www.w3.org/2000/svg">
<rect width="500" height="500" fill="white"/>
<path d="M414.704 462H314.768C303.729 462 294.432 452.704 294.432 441.664V429.463C294.432 419.585 294.432 409.708 294.432 400.412C294.432 378.333 294.432 355.673 293.851 333.594C293.27 313.259 277.002 293.504 257.247 290.018C243.883 287.694 230.52 291.18 220.062 299.314C209.603 307.448 203.793 319.65 203.212 333.013C202.631 355.092 202.631 377.752 202.631 399.25C202.631 409.127 202.631 419.004 202.631 428.882V441.664C202.631 452.704 193.335 462 182.295 462H87.5889C76.5495 462 67.2532 452.704 67.2532 441.664V335.337C63.186 339.405 57.9568 341.729 52.7276 341.729C47.4985 341.729 41.6882 339.405 38.2021 335.337L24.2576 321.393C17.2854 314.421 11.4752 308.029 5.66495 302.219C-1.88832 294.085 -1.88832 281.302 5.66495 273.749L235.749 43.665C243.302 36.1117 257.247 36.1117 264.8 43.665L493.142 273.749C497.209 277.816 498.952 283.046 498.952 288.275C498.952 293.504 496.628 298.733 492.56 302.8L460.604 333.013C456.537 336.499 451.308 338.824 446.079 338.824C442.012 338.824 437.944 337.081 434.458 334.756V441.664C435.039 452.704 425.743 462 414.704 462ZM335.104 421.329H394.368V284.208C394.368 276.073 399.597 268.52 407.15 265.034C414.704 262.129 424 263.872 429.81 269.682L448.403 289.437L450.146 287.694L250.275 87.2415L49.8225 288.856C50.9846 290.018 52.1466 291.18 53.3087 292.342C60.2809 285.37 66.6721 277.816 74.2254 270.263C80.0356 263.872 88.7509 262.129 96.8852 265.034C104.438 267.939 109.668 275.492 109.668 284.208V421.329H163.703C163.703 413.775 163.703 406.803 163.703 399.25C163.703 377.171 163.703 354.511 164.284 331.851C164.865 306.867 176.485 283.627 196.24 267.939C215.994 252.251 241.559 245.279 265.962 249.927C304.891 256.9 335.104 292.923 335.685 333.013C336.266 355.673 336.266 378.914 336.266 400.993C335.104 407.384 335.104 414.356 335.104 421.329Z" fill="#A9A5A5"/>
</svg>
