<svg width="500" height="500" viewBox="0 0 500 500" fill="none" xmlns="http://www.w3.org/2000/svg">
<rect width="500" height="500" fill="white"/>
<path d="M176.782 456.799C176.785 458.014 175.796 459 174.581 459C140.07 459 109.122 459 75.6703 459C74.4552 459 73.4685 458.015 73.4685 456.8V286.808C60.2954 300.53 48.172 313.727 36.5965 326.4C35.7387 327.339 34.2645 327.355 33.3825 326.439C21.0023 313.576 10.5075 303.036 1.46439 293.52C0.646297 292.659 0.664058 291.305 1.50094 290.463C83.7166 207.68 167.035 123.795 248.692 41.5711C249.552 40.7047 250.952 40.7047 251.812 41.5711C332.872 123.197 415.599 206.492 498.338 289.797C499.21 290.675 499.187 292.099 498.288 292.951C489.294 301.481 478.892 311.835 467.083 323.166C466.206 324.008 464.811 323.977 463.971 323.097L429.332 286.808V456.8C429.332 458.015 428.346 459 427.131 459C391.908 459 357.7 459 322.477 459C321.262 459 320.277 458.016 320.277 456.801C320.277 453.212 320.277 449.114 320.277 445.799C320.277 410.786 320.851 375.2 319.703 340.188C319.129 306.897 293.3 277.051 261.731 271.311C218.684 263.275 178.505 295.418 176.784 339.614C175.636 374.626 176.21 410.212 176.21 445.225C176.707 448.709 176.773 452.193 176.782 456.799Z" fill="#635DA5"/>
</svg>
